<svg width="24" height="24" viewBox="0 0 24 24" fill="none" xmlns="http://www.w3.org/2000/svg">
<path d="M6.00008 21H4.62508C4.62508 21.7594 5.24069 22.375 6.00008 22.375V21ZM6.00008 12.6H7.37508C7.37508 11.8406 6.75948 11.225 6.00008 11.225V12.6ZM2 12.6L1.04777 11.6081C0.642893 11.9968 0.514885 12.5925 0.724363 13.1132C0.933841 13.6339 1.43875 13.975 2 13.975V12.6ZM12 3L12.9522 2.00809C12.4202 1.4973 11.5798 1.4973 11.0478 2.00809L12 3ZM22 12.6V13.975C22.5612 13.975 23.0662 13.6339 23.2756 13.1132C23.4851 12.5925 23.3571 11.9968 22.9522 11.6081L22 12.6ZM18.5217 12.6V11.225C17.7623 11.225 17.1467 11.8406 17.1467 12.6H18.5217ZM18.5217 21V22.375C19.2811 22.375 19.8967 21.7594 19.8967 21H18.5217ZM15.9131 19.625H6.00008V22.375H15.9131V19.625ZM7.37508 21V12.6H4.62508V21H7.37508ZM6.00008 11.225H2V13.975H6.00008V11.225ZM2.95223 13.5919L12.9522 3.99191L11.0478 2.00809L1.04777 11.6081L2.95223 13.5919ZM11.0478 3.99191L21.0478 13.5919L22.9522 11.6081L12.9522 2.00809L11.0478 3.99191ZM22 11.225H18.5217V13.975H22V11.225ZM15.9131 22.375H18.5217V19.625H15.9131V22.375ZM17.1467 12.6V21H19.8967V12.6H17.1467Z" fill="#090827"/>
<circle cx="12" cy="15" r="2" fill="#090827"/>
</svg>
